<svg fill="#000000" xmlns="http://www.w3.org/2000/svg" xmlns:xlink="http://www.w3.org/1999/xlink" version="1.1" x="0px" y="0px" viewBox="0 0 100 100" enable-background="new 0 0 100 100" xml:space="preserve"><path d="M85.923,48.424C78.064,36.002,64.636,28.584,50,28.584s-28.064,7.418-35.923,19.84L13.079,50l0.999,1.576  C21.936,63.998,35.364,71.416,50,71.416s28.064-7.418,35.923-19.84L86.921,50L85.923,48.424z M57.359,41.771  c2.308,0,4.178,1.869,4.178,4.178c0,2.307-1.87,4.178-4.178,4.178c-2.308,0-4.178-1.871-4.178-4.178  C53.182,43.641,55.051,41.771,57.359,41.771z M50,65.518c-11.969,0-23.005-5.766-29.885-15.518  c4.819-6.832,11.682-11.697,19.473-14.004c-2.475,2.588-4.003,6.09-4.003,9.953c0,7.961,6.453,14.414,14.415,14.414  c7.962,0,14.415-6.453,14.415-14.414c0-3.863-1.528-7.365-4.003-9.953C68.204,38.303,75.065,43.168,79.885,50  C73.005,59.752,61.969,65.518,50,65.518z"/></svg>