<svg fill="#000000" xmlns:dc="http://purl.org/dc/elements/1.1/" xmlns:cc="http://creativecommons.org/ns#" xmlns:rdf="http://www.w3.org/1999/02/22-rdf-syntax-ns#" xmlns:svg="http://www.w3.org/2000/svg" xmlns="http://www.w3.org/2000/svg" xmlns:sodipodi="http://sodipodi.sourceforge.net/DTD/sodipodi-0.dtd" xmlns:inkscape="http://www.inkscape.org/namespaces/inkscape" version="1.1" x="0px" y="0px" viewBox="0 0 100 100"><g transform="translate(0,-952.36218)"><path style="text-indent:0;text-transform:none;direction:ltr;block-progression:tb;baseline-shift:baseline;color:#000000;enable-background:accumulate;" d="m 65.528488,958.34011 c -0.17435,0 -0.33175,0.018 -0.5,0.031 -1.34602,0.104 -2.44312,0.5168 -3.25,0.9688 -0.40344,0.226 -0.75091,0.4452 -1.03125,0.6875 -0.14017,0.1211 -0.27082,0.2475 -0.40625,0.4062 -0.13544,0.1588 -0.28909,0.2205 -0.46875,0.9063 a 2.000005,2.000005 0 0 0 -0.0625,0.3437 c -0.61519,7.259 -1.82293,11.943 -3.34375,15.1563 -1.52082,3.2133 -3.30919,5.033 -5.53125,6.75 -3.48223,2.6907 -8.15901,5.0584 -12.75,10.9687 l 0,-2.0312 a 2.0041708,1.9958479 0 0 0 -2,-2 l -28.1250001,0 a 2.0041708,1.9958479 0 0 0 -2,1.9687 l -0.0625,48.18749 a 2.0041708,1.9958479 0 0 0 2,2 l 28.1875001,0 a 2.0041708,1.9958479 0 0 0 2,-2 l 0,-1.5937 c 0.35634,0.095 0.60493,0.1662 1.03125,0.2812 1.93492,0.5221 4.54441,1.23 7.5625,2 6.03618,1.5401 13.67359,3.3206 20.8125,4.2813 0.71061,0.096 1.39609,0.1686 2.09375,0.25 0.36569,0.062 0.77026,0.1051 1.15625,0.125 5.86314,0.614 11.13773,0.5739 14.96875,-1.2188 2.26287,-1.0588 4.07008,-3.0741 4.34375,-5.6875 0.21502,-2.0533 -0.38473,-4.2632 -1.65625,-6.7812 1.35057,-0.651 2.4551,-1.5385 3.21875,-2.5938 1.17552,-1.6244 1.53214,-3.5446 1.375,-5.3437 -0.22077,-2.5278 -1.31436,-4.9068 -2.9375,-6.6875 2.06355,-1.9569 3.11682,-4.8934 3.3125,-7.6875 0.13288,-1.8975 -0.14691,-3.8021 -1,-5.4687 -0.23983,-0.4686 -0.55486,-0.9318 -0.90625,-1.3438 0.269,-0.2615 0.49807,-0.5501 0.71875,-0.8437 1.05224,-1.4001 1.65535,-3.11449 1.71875,-4.87499 0.0634,-1.7606 -0.41417,-3.6023 -1.65625,-5.0938 -1.23034,-1.4774 -3.1969,-2.4844 -5.59375,-2.6562 -2.51389,-0.3375 -5.66551,-0.4271 -8.90625,-0.4375 -0.82204,0 -1.64415,0.023 -2.46875,0.031 -0.47676,-4.6172 0.42282,-8.2913 1.09375,-12.0938 0.73577,-4.1699 1.07708,-8.6796 -1.71875,-13.625 a 2.000005,2.000005 0 0 0 -0.21875,-0.3125 c -3.11059,-3.7069 -6.38463,-4.9924 -9,-4.9687 z m -0.1875,4 c 1.35007,-0.1042 3.32896,0.2826 6,3.4063 2.15691,3.9083 1.87489,6.8855 1.1875,10.7812 -0.62069,3.5178 -1.62085,7.6735 -1.15625,12.8438 -3.1447,0.069 -6.02135,0.1538 -8.03125,0.125 a 2.000005,2.000005 0 0 0 -0.375,0.031 c -2.42992,0.4125 -4.37329,1.437 -5.625,2.9375 -1.25172,1.5005 -1.73139,3.4375 -1.5,5.25 0.31849,2.49469 1.896,4.79999 4.375,6.24999 -1.67481,2.0552 -2.37423,4.9175 -2,7.6249 0.28929,2.093 1.2934,4.19 3.09375,5.7188 0.48317,0.4103 1.00558,0.7493 1.59375,1.0625 -1.08549,1.1696 -1.94963,2.5894 -2.375,4.2187 -0.52478,2.0102 -0.30299,4.4052 1.125,6.375 0.6763,0.933 1.60531,1.7291 2.75,2.4063 -0.17301,0.1891 -0.32148,0.3883 -0.46875,0.5937 -1.17835,1.6443 -1.63868,3.6548 -1.5,5.6563 0.077,1.1113 0.34592,2.2319 0.8125,3.2812 -5.411,-0.9571 -10.89343,-2.2389 -15.46875,-3.4062 -2.98199,-0.7608 -5.58831,-1.4758 -7.53125,-2 -0.83225,-0.2245 -1.48102,-0.3814 -2.0625,-0.5313 l 0,-33.1562 c 5.16134,-9.23329 10.26141,-11.25609 15.1875,-15.06249 2.50299,-1.9341 4.90827,-4.3622 6.71875,-8.1875 1.74491,-3.6867 2.96517,-8.6088 3.625,-15.7187 0.36095,-0.2022 0.93974,-0.4471 1.625,-0.5 z m 9.5625,31 c 4.25231,-0.049 8.50503,-0.017 11.375,0.375 a 2.000005,2.000005 0 0 0 0.125,0.031 c 1.55703,0.1012 2.33518,0.6081 2.84375,1.2188 0.50857,0.6107 0.7841,1.4593 0.75,2.4062 -0.0341,0.947 -0.3991,1.919 -0.90625,2.5938 -0.45213,0.60149 -0.94909,0.95879 -1.53125,1.06249 a 2.000005,2.000005 0 0 0 -0.0625,0 2.000005,2.000005 0 0 0 -0.34375,0.031 2.000005,2.000005 0 0 0 -0.125,0.031 c -3.52259,0.8489 -8.74052,0.944 -13.1875,0.7812 -2.22349,-0.081 -4.26428,-0.1978 -5.84375,-0.3125 -1.57947,-0.1147 -2.44838,-0.2543 -3.3125,-0.2187 a 2.000005,2.000005 0 0 0 -0.0937,0 c -3.07899,-0.5982 -4.57843,-2.53639 -4.78125,-4.12499 -0.10361,-0.8116 0.0542,-1.5407 0.59375,-2.1875 0.52263,-0.6265 1.45513,-1.2304 3.0625,-1.5313 2.91204,0.033 7.18519,-0.1074 11.4375,-0.1562 z m -64.84375,1.1563 24.125,0 0,6.59369 a 2.000005,2.000005 0 0 0 0,0.4063 2.000005,2.000005 0 0 0 0,0.1875 l 0,34.5624 a 2.000005,2.000005 0 0 0 0,0.625 l 0,1.8125 -24.1875001,0 0.0625,-44.18739 z m 77.46875,10.59369 c 0.63351,0.1971 1.01632,0.5805 1.375,1.2812 0.41693,0.8146 0.65462,2.0597 0.5625,3.375 -0.17611,2.5147 -1.52454,4.9748 -3.15625,5.7813 l -17.5625,0.1562 c -2.3727,0.021 -3.88728,-0.5987 -4.875,-1.4375 -0.98782,-0.8388 -1.51428,-1.9655 -1.6875,-3.2187 -0.33679,-2.4366 0.92826,-4.9869 2.71875,-5.6875 -0.10451,0.01 1.20271,0.073 2.78125,0.1875 1.5962,0.1159 3.70093,0.2596 6,0.3438 4.44611,0.1627 9.62881,0.1543 13.84375,-0.7813 z m -1.34375,14.4375 c 1.35572,1.049 2.73932,3.3074 2.90625,5.2187 0.0916,1.0491 -0.0889,1.9155 -0.625,2.6563 -0.51215,0.7077 -1.42601,1.4033 -3.09375,1.8437 l -15.71875,-0.094 c -2.72199,-0.6294 -4.09382,-1.6261 -4.75,-2.5313 -0.67735,-0.9343 -0.78897,-1.8931 -0.5,-3 0.28898,-1.1069 1.04464,-2.2823 1.90625,-3.0312 0.73534,-0.6392 1.49361,-0.8784 1.9375,-0.9063 0.17565,0 0.35179,0 0.53125,0 l 17.40625,-0.1562 z m -16.71875,13.625 a 2.000005,2.000005 0 0 0 0.21875,0 l 14.78125,0.094 c 1.40641,2.5352 1.83284,4.348 1.71875,5.4375 -0.12791,1.2214 -0.64282,1.8357 -2.0625,2.5 -2.57035,1.2027 -7.96922,1.3815 -14.0625,0.7187 -1.02447,-0.2203 -1.73814,-0.7094 -2.3125,-1.3437 -0.76277,-0.8424 -1.22993,-2.0272 -1.3125,-3.2188 -0.0826,-1.1915 0.22865,-2.335 0.75,-3.0625 0.51621,-0.7203 1.12357,-1.1235 2.28125,-1.125 z" fill="#000000" fill-opacity="1" fill-rule="evenodd" stroke="none" marker="none" visibility="visible" display="inline" overflow="visible"/></g></svg>