<svg fill="#000000" xmlns:dc="http://purl.org/dc/elements/1.1/" xmlns:cc="http://creativecommons.org/ns#" xmlns:rdf="http://www.w3.org/1999/02/22-rdf-syntax-ns#" xmlns:svg="http://www.w3.org/2000/svg" xmlns="http://www.w3.org/2000/svg" xmlns:sodipodi="http://sodipodi.sourceforge.net/DTD/sodipodi-0.dtd" xmlns:inkscape="http://www.inkscape.org/namespaces/inkscape" version="1.1" x="0px" y="0px" viewBox="0 0 1185.1458 1027.842" enable-background="new 0 0 2000 2000" xml:space="preserve"><path style="" d="m 844.36147,0.005 -6.462,0.04 c -96.686,1.32 -185.5891,43.11 -248.5991,114.60999 C 525.20537,45.701 436.10942,6.081 338.29242,6.081 l -0.1,0 c -86.781,0.33 -169.124,35.66 -231.853,99.52 C 37.432418,175.687 -1.2415825,274.728 0.03041753,377.309 c 0.426,38.627 6.50999997,76.21996 16.84000047,107.34796 21.552,94.5171 134.604002,218.6961 355.851002,390.9841 57.633,44.525 144.69895,105.086 181.90995,130.93204 l 15.562,10.847 c 2.03,1.555 4.15,2.973 6.367,4.199 7.545,4.15 15.944,6.223 24.243,6.223 l 0,0 c 9.34,0 18.722,-2.64 26.834,-7.829 49.5701,-31.41004 116.2611,-81.68704 198.2321,-149.22604 213.18103,-174.602 325.99703,-305.622 343.96703,-396.1771 10.565,-35.891 15.75,-73.57696 15.28,-112.10796 C 1182.5215,162.62 1029.7125,0 844.35947,0 Z m -0.04,100.264 c 130.737,0 238.59803,118.143 240.43803,263.409 0.376,28.486 -3.395,56.21796 -12.262,86.82796 -7.924,39.5711 -58.768,136.6331 -310.43603,342.7871 -63.103,52.069 -117.9071,94.234 -160.5421,123.71 -40.608,-28.25 -116.54495,-81.355 -167.29295,-120.596 -257.563,-200.445 -310.712,-295.297 -320.758,-338.3561 -8.348,-25.846 -12.782,-53.43796 -13.161,-81.97096 -0.990002,-76.076 27.307,-149.035 77.583,-200.161 43.863,-44.61601 100.885,-69.333 163.898,-69.568 l 0,0 c 83.951,0 160.82695,44.381 205.68095,118.617 9.195,15.282 26.882,24.203 43.577,24.242 17.876,-0.282 34.146,-9.902 42.92,-25.372 43.3421,-76.216 120.0791,-122.392 205.3971,-123.524 0,0 4.762,-0.04 4.958,-0.04 z m -3.636,75.272 c -13.82,0 -24.946,11.226 -24.946,25.093 0,13.865 11.224,25.087 25.042,25.087 65.605,0 117.724,61.267 118.666,139.608 0.284,15.658 -1.839,30.988 -6.178,45.797 l -3.586,14.47796 c -2.784,13.535 5.896,26.836 19.433,29.666 1.745,0.381 3.492,0.518 5.141,0.518 11.648,0 22.021,-8.11 24.475,-19.994 l 2.68803,-10.757 c 5.708,-19.43196 8.49,-39.76096 8.114,-60.37096 -1.274,-106.072 -75.46403,-189.125 -168.84903,-189.125 z" fill="#000000"/></svg>